<?xml version="1.0" encoding="UTF-8"?>
<svg id="svg1" xmlns="http://www.w3.org/2000/svg" xmlns:svg="http://www.w3.org/2000/svg" xmlns:sodipodi="http://sodipodi.sourceforge.net/DTD/sodipodi-0.dtd" xmlns:inkscape="http://www.inkscape.org/namespaces/inkscape" version="1.1" viewBox="0 0 3501.69 8192">
  <!-- Generator: Adobe Illustrator 29.5.1, SVG Export Plug-In . SVG Version: 2.1.0 Build 141)  -->
  <defs>
    <style>
      .st0 {
        font-family: Objectivity-Regular, Objectivity;
      }

      .st0, .st1, .st2 {
        fill: #0e454e;
      }

      .st0, .st3, .st4, .st2 {
        isolation: isolate;
      }

      .st0, .st2 {
        font-size: 130.3px;
      }

      .st5 {
        stroke: #23384a;
        stroke-linejoin: round;
        stroke-width: .37px;
      }

      .st5, .st4, .st6 {
        fill: #fff;
      }

      .st4 {
        font-family: Objectivity-ExtraBold, Objectivity;
        font-size: 90.61px;
      }

      .st4, .st2 {
        font-weight: 700;
      }

      .st2 {
        font-family: Objectivity-Bold, Objectivity;
      }

      .st7 {
        fill: #e5fc2a;
      }
    </style>
  </defs>
  <sodipodi:namedview id="namedview1" bordercolor="#000000" borderopacity="0.25" inkscape:current-layer="g1" inkscape:cx="1775" inkscape:cy="3617.8571" inkscape:deskcolor="#d1d1d1" inkscape:pagecheckerboard="0" inkscape:pageopacity="0.0" inkscape:showpageshadow="2" inkscape:window-height="1009" inkscape:window-maximized="1" inkscape:window-width="1920" inkscape:window-x="-8" inkscape:window-y="-8" inkscape:zoom="0.14" pagecolor="#ffffff" showgrid="false">
    <inkscape:page id="page1" x="0" y="0" width="3553.3333" height="8526.667" bleed="0" margin="0"/>
  </sodipodi:namedview>
  <path id="path1" class="st1" d="M-7.25,8180.05L4.42,2230.3C491.92,741.19,1400.01,387.33,2444.44,401.4l12.21,5079.99c-1387.69,63.45-1890.45,1409.32-2463.9,2698.66h0Z" sodipodi:nodetypes="ccccc"/>
  <path id="path2" class="st7" d="M7.34,5068.12c974.45-1707.2,1627.13-991.09,2450.72-1128.01.33,11.42,8.05,1725.73.6,1541.05C1285.67,5917.22,89.26,8119.97,6.47,8214.72l.86-3146.6h0Z" sodipodi:insensitive="true" sodipodi:nodetypes="ccccc"/>
  <path class="st6" d="M981.5,1872.39s.57,2.17,1.28,4.83l68.36,255.41c.71,2.66,2.73,5.68,4.5,6.73s4.8-4.07,5.52-6.73l68.36-255.41c.71-2.66,3.54-4.83,6.29-4.83h61.98c2.75,0,4.51,2.2,3.91,4.88l-91.59,408.9c-.6,2.68-3.34,4.88-6.09,4.88h-95.29c-2.75,0-5.49-2.2-6.1-4.88l-91.99-408.9c-.6-2.68,1.15-4.88,3.9-4.88h61.98c2.75,0,5,0,4.99,0Z"/>
  <path class="st6" d="M1312.57,1872.39s0,2.25,0,5v408.66c0,2.75-2.25,5-5,5h-59.1c-2.75,0-5-2.25-5-5v-408.66c0-2.75,2.25-5,5-5h59.1c2.75,0,5,0,5,0Z"/>
  <path class="st6" d="M1494.77,2305.74c-68.42,0-119.13-54.15-126.89-131.4-1.12-11.16,7.56-20.89,18.78-20.89h24.88c9.35,0,17.19,6.86,18.68,16.09,5.9,36.65,31.98,61.52,66.61,61.52s54.71-24.11,54.71-57.63c0-39.4-31.67-45.28-67.87-51.75-57.99-10.59-113.93-28.23-113.93-125.83,0-81.73,48.94-138.18,119.69-138.18,65.11,0,113.69,51.21,121.47,124.33,1.19,11.16-7.55,20.91-18.78,20.91h-22.75c-9.2,0-17.1-6.64-18.61-15.72-5.45-32.72-29-54.84-59.68-54.84-32.49,0-53.88,21.75-53.88,52.33,0,39.4,29.2,45.28,66.21,52.33,56.76,9.41,115.58,27.05,115.58,123.48,0,85.85-49.77,145.24-124.22,145.24h0Z"/>
  <path class="st6" d="M1722.91,1954.71h-79.18c-2.75,0-5-2.25-5-5v-72.32c0-2.75,2.25-5,5-5h235.14c2.75,0,5,2.25,5,5v72.32c0,2.75-2.25,5-5,5h-74.17c-2.75,0-5.86.39-6.92.86s-1.92,5.23-1.92,7.98v322.5c0,2.75-2.25,5-5,5h-59.1c-2.75,0-5-2.25-5-5v-322.5c0-2.75-.39-5.86-.86-6.92s-2.99-1.92-2.99-1.92Z"/>
  <path class="st6" d="M1946.38,2291.04s-2.25,0-5,0h-62.8c-2.75,0-4.49-2.19-3.86-4.87l96.02-408.92c.63-2.68,3.39-4.87,6.14-4.87h90.36c2.75,0,5.51,2.19,6.14,4.87l95.61,408.92c.63,2.68-1.11,4.87-3.86,4.87h-62.39c-2.75,0-5.51-2.19-6.13-4.87l-13.79-59.64c-.62-2.68-3.38-4.87-6.13-4.87h-109.28c-2.75,0-5.51,2.19-6.13,4.87l-13.79,59.64c-.62,2.68-1.13,4.87-1.13,4.87ZM1978.7,2149.94c1.19.64,4.41,1.16,7.16,1.16h72.41c2.75,0,5.97-.52,7.16-1.16s1.06-5.76.43-8.43l-38.9-163.84c-.64-2.68-2.63-5.75-4.43-6.83s-4.72,4.16-5.36,6.83l-38.9,163.84c-.64,2.68-.76,7.8.43,8.43Z"/>
  <path class="st6" d="M1176.5,2643.56s0-2.25,0-5v-249.73c0-2.75,2.25-5,5-5h55.81c2.75,0,5,2.25,5,5v408.66c0,2.75-2.25,5-5,5h-66.09c-2.75,0-5.86-2.08-6.91-4.62l-112.98-272.89c-1.05-2.54-3.6-5.23-5.65-5.97s-3.6,5.16-3.54,7.91l5.93,270.58c.06,2.75-2.14,5-4.89,5h-55.4c-2.75,0-5-2.25-5-5v-408.66c0-2.75,2.25-5,5-5h66.09c2.75,0,5.87,2.07,6.94,4.61l106.36,252.01c1.07,2.53,3.6,5.21,5.63,5.96s3.69-2.84,3.69-2.84Z"/>
  <path class="st6" d="M1294.95,2593.16c0-132.3,65.81-224.03,162.05-224.03s162.05,91.73,162.05,224.03-66.21,224.03-162.05,224.03-162.05-91.14-162.05-224.03ZM1364.05,2593.16c0,81.73,38.25,138.77,92.95,139.36,54.71,0,92.95-57.63,92.95-139.36s-38.25-139.36-92.95-139.36-92.95,57.63-92.95,139.36Z"/>
  <path class="st6" d="M1705.85,2383.83s.57,2.17,1.28,4.83l68.35,255.2c.71,2.66,2.74,5.68,4.5,6.73s4.8-4.07,5.52-6.73l68.35-255.2c.71-2.66,3.54-4.83,6.29-4.83h61.98c2.75,0,4.51,2.2,3.91,4.88l-91.59,408.9c-.6,2.68-3.34,4.88-6.09,4.88h-95.29c-2.75,0-5.49-2.2-6.1-4.88l-91.99-408.9c-.6-2.68,1.15-4.88,3.9-4.88h61.98c2.75,0,5,0,4.99,0Z"/>
  <path class="st6" d="M1987.05,2797.62c-.62,2.68-3.38,4.87-6.13,4.87h-62.8c-2.75,0-4.49-2.19-3.86-4.87l96.02-408.92c.63-2.68,3.39-4.87,6.14-4.87h90.36c2.75,0,5.51,2.19,6.14,4.87l95.61,408.92c.63,2.68-1.11,4.87-3.86,4.87h-62.39c-2.75,0-5.51-2.19-6.13-4.87l-13.79-59.64c-.62-2.68-3.38-4.87-6.13-4.87h-109.28c-2.75,0-5.51,2.19-6.13,4.87l-13.79,59.64ZM2018.25,2661.39c1.19.64,4.41,1.16,7.16,1.16h72.41c2.75,0,5.97-.52,7.16-1.16s1.06-5.76.43-8.43l-38.9-163.84c-.64-2.68-2.63-5.75-4.43-6.83s-4.72,4.16-5.36,6.83l-38.9,163.84c-.64,2.68-.76,7.8.43,8.43Z"/>
  <g>
    <path class="st7" d="M566.73,2229.07c.1.31.19.61.29.91h35.49c5.68,0,9.91-5.3,8.53-10.8-17.4-69.85-92.15-81.62-138.69-21.27-16.34,23.7-18.75,10.6-29.64-7.36-20.49-34.05-60.07-38.41-95.11-24.6-6.93,2.51-14.56,7.44-21.67,7.85-12.15.72-24.97-19.48-38.3-16.62-10.71,2.08-25.34,14.45-22.79,27.44,1.44,7.56,13.95,13.28,15.82,21.51,3.13,10.94-.81,21.64-6.4,31.45-13.24,24.43-25.15,50.51-25.6,78.81-.4,21.24,6.72,44.18,23.32,58.15,17.51,15.57,45.49,15.88,64.03,2.43,11.78-8.19,18.89-21.56,22.62-35.22,8.1-31.66-1.98-65.89-11.67-95.46-8.78-22.37,2.52-34,23.88-40.41,10.76-2.99,21.67-3.74,29.64,4.69,10.85,11.7,15,29.88,16.93,45.61,4.15,31.44,4.08,65.59,2.56,97.34-.17,4.78-.53,10.1.07,14.52.79,9.27,9.05,11.59,17.63,11.96,6.88.35,15.28.34,20.87-1.2,9.64-2.03,11.6-11.6,11.87-20.46,2.28-49.64,8.32-105.64,46.23-141.73,18.88-16.49,41.99-12.43,50.12,12.46h-.02ZM309.36,2343.16l-.15.06c-5.12,1.82-9.86-2.56-12.19-6.81-6.81-12.84-4.12-29.7-.36-43.42,2.08-7.38,5.06-15.88,7.92-19.46,8.68-11.32,12.07,25.73,12.85,30.42.94,11.73,3.17,33.85-8.06,39.2h0Z"/>
    <g>
      <path class="st7" d="M565.17,2224.94c.38.85.91,2.1,1.41,3.67,1.83,5.7,1.72,10.51,1.63,12.74-.55,13.38-2.24,19.85-3.08,29.28-2.88,32.35-7.39,65.55,15.71,91.38,11.59,12.96,27.64,19.8,47.72,20.33.64.02,1.27.03,1.9.03,23.93,0,42.42-11.96,55.84-23.38,6.26,4.99,12.97,9.28,20.05,12.82,12.12,6.05,23.61,8.48,34.25,8.48,33.37,0,58.56-23.82,69.72-34.38l-28.17-31.09c-24.69,23.35-41.31,20.59-54.25,14.12-2.72-1.35-5.31-2.89-7.78-4.58,7.89-9.6,15.95-20.79,23-33.27,14.82-26.21,21.54-51.62,19.97-75.52-2.08-31.63-27.92-55.95-60.12-56.58-17.96-.37-33.83,6.29-46.06,19.22-9.81,10.37-16.55,24.17-19.51,39.94-5.35,28.51-2.11,59.31,9.1,86.74,2.51,6.12,5.38,11.98,8.61,17.55-9.42,8.02-17.08,12.18-25.26,12-9.46-.25-12.19-3.3-13.09-4.29-9.25-10.35-6.36-42.87-4.62-62.3.75-8.45,1.46-16.44,1.59-23.62.16-8.63-.94-16.68-2.48-24.27-.36-1.75-2.08-2.88-3.83-2.47-13.97,3.31-28.21,3.69-42.61,3.77.13.41.4,1.25.4,1.25-.1.61-.19,1.23-.29,1.84"/>
      <path class="st7" d="M782.13,2314.81c5.43,12.44,6.46,29,28.17,31.09,1.47-1.37,3.01-2.79,4.4-4.23,9.46-10.74-.57-22.41-10.89-28.16-9.43-5.24-14.1-3.64-21.69,1.31h0Z"/>
    </g>
  </g>
  <path class="st1" d="M697.76,2200.86c-28.34,12.86-31.15,63.72-12.75,86.17,9.83,9.51,17.42-6.71,20.99-14.49,4.75-10.56,8.72-21.26,11.14-32.08,1.93-9.04,3.22-18.84.68-27.82-2.31-9.08-10.45-15.7-19.86-11.85l-.2.08h0Z"/>
  <g class="st3">
    <text class="st4" transform="translate(177.81 3397.22)"><tspan x="0" y="0">INTERMEDIÁRIO DE CRÉDITO VINCULADO</tspan></text>
  </g>
  <g id="text15-7-7-1" class="st3">
    <g class="st3">
      <g class="st3">
        <g class="st3">
          <text class="st0" transform="translate(340.57 4824.74) scale(.93 1)"><tspan x="0" y="0">ESPECIALISTA EM</tspan></text>
        </g>
      </g>
    </g>
  </g>
  <path id="path17-1" class="st5" d="M460.24,5141.21c0,30.19-23.83,54.8-53.55,55.29-29.73.5-54.33-23.31-55.31-53.48-.97-30.18,22.06-55.57,51.73-57.05,29.68-1.48,55.06,21.48,57.01,51.6" sodipodi:arc-type="arc" sodipodi:cx="1593.4911" sodipodi:cy="1075.0045" sodipodi:end="6.2175659" sodipodi:open="true" sodipodi:rx="23.37982" sodipodi:ry="22.149303" sodipodi:start="0" sodipodi:type="arc"/>
  <path id="path17-3-7" class="st5" d="M469.01,5454.35c0,30.19-23.83,54.8-53.55,55.29-29.73.5-54.33-23.31-55.31-53.48-.97-30.18,22.06-55.57,51.73-57.05,29.68-1.48,55.06,21.48,57,51.6" sodipodi:arc-type="arc" sodipodi:cx="1597.2512" sodipodi:cy="1200.4213" sodipodi:end="6.2175659" sodipodi:open="true" sodipodi:rx="23.37982" sodipodi:ry="22.149303" sodipodi:start="0" sodipodi:type="arc"/>
  <g id="text15-7-7-11" class="st3">
    <g class="st3">
      <g class="st3">
        <g class="st3">
          <text class="st2" transform="translate(535.73 5180.67) scale(.93 1)"><tspan x="0" y="0">CRÉDITO HABITAÇÃO</tspan></text>
        </g>
      </g>
      <g class="st3">
        <g class="st3">
          <text class="st2" transform="translate(535.73 5493.4) scale(.93 1)"><tspan x="0" y="0">CRÉDITO AO CONSUMO</tspan></text>
        </g>
      </g>
    </g>
  </g>
</svg>