<svg xmlns="http://www.w3.org/2000/svg" width="1920" height="817" viewBox="0 0 508 216.165"><defs><clipPath id="b" clipPathUnits="userSpaceOnUse"><path d="M-1531.012 733.916h1920v-1080h-1920Z"/></clipPath><clipPath id="c" clipPathUnits="userSpaceOnUse"><path d="M-1537.428 557.1h1920v-1080h-1920Z"/></clipPath><path id="a" d="M616.667 2110.417h470.718v148.847H616.667z"/></defs><path d="M42.785 1260.662h183.91v78.29H42.785z" style="fill:#0e454e;fill-opacity:1;stroke:#0e454e;stroke-width:0;stroke-linejoin:round;stroke-miterlimit:3.9;paint-order:stroke fill markers" transform="translate(-117.52 -3479.452)scale(2.76002)"/><text xml:space="preserve" style="font-style:normal;font-variant:normal;font-weight:700;font-stretch:normal;font-size:39.953px;line-height:1.26;font-family:&quot;Neue Metana&quot;;-inkscape-font-specification:&quot;Neue Metana Bold&quot;;text-align:justify;writing-mode:lr-tb;direction:ltr;white-space:pre;shape-inside:url(#a);display:inline;fill:#fff;fill-opacity:1;stroke:#fff;stroke-width:0;stroke-linejoin:round;stroke-miterlimit:3.9;paint-order:stroke fill markers" transform="matrix(1.56 0 0 2.41825 -860.945 -5046.989)"><tspan x="616.666" y="2145.499">VISTANOVA</tspan></text><path d="m0 0-.942.002C-60.939.347-110.7 33.079-141.88 60.477l23.764 27.043C-69.979 45.221-27.715 36.156-.735 36.002q.349-.003.699-.002c41.64 0 86.216 21.374 122.416 58.727l25.851-25.055c-20.032-20.669-43.242-37.854-67.121-49.695C54.376 6.719 27.093 0 0 0" clip-path="url(#b)" style="fill:#e5fc2a;fill-opacity:1;fill-rule:nonzero;stroke:none" transform="matrix(.20152 0 0 -.18084 72.419 140.463)"/><path d="M0 0c-6.024 15.937-10.796 33.923-9.169 51.122.773 8.176 3.875 18.644 11.776 22.52 7.328 3.594 14.12 1.169 17.494-6.406 6.492-14.574-2.004-33.117-8.458-46.177-2.133-4.317-4.227-8.641-7.041-12.55C3.354 6.774-.917 2.425 0 0m-299.007-18.465a32 32 0 0 0-.59-4.5c-1.247-6.028-6.199-13.584-13.328-11.787-5.674 1.431-7.485 8.337-7.521 13.561-.069 10.099 2.434 20.659 5.526 30.212a121 121 0 0 0 3.735 10.014c.775 1.828 3.866 6.21 3.39 8.219 1.982-8.375 4.565-16.6 6.402-25.011 1.408-6.447 2.824-13.843 2.386-20.708m373.554 3.777C54.526-33.684 41.044-31.437 30.55-26.178a53 53 0 0 0-6.312 3.725C30.632-14.642 37.169-5.534 42.892 4.62 54.91 25.946 60.36 46.618 59.089 66.061c-1.682 25.733-22.644 45.523-48.758 46.03-14.559.302-27.434-5.124-37.347-15.634-7.951-8.432-13.422-19.666-15.822-32.49-4.34-23.189-1.718-48.25 7.381-70.567a117 117 0 0 1 6.977-14.279c-7.647-6.529-13.855-9.911-20.484-9.764-7.676.203-9.885 2.683-10.611 3.497-7.504 8.421-5.154 34.878-3.751 50.685.61 6.879 1.187 13.377 1.297 19.214.634 33.57-13.947 58.642-39.003 67.068-28.791 9.683-56.658-10.795-71.788-33.859-6.608-10.073-10.385-20.794-15.406-31.998.518 1.058-.447 5.357-.513 6.658-.14 2.787-.336 5.572-.63 8.347-1.474 13.921-5.518 27.046-15.339 37.424-19.747 20.868-50.233 20.328-73.698 6.397-1.207-.717-17.631-11.267-17.046-12.486-2.852 5.966-7.958 16.825-10.716 22.43l-1.288 2.246-33.446-16.445 1.339-2.721c4.593-9.336 12.459-22.591 17.09-32.865-6.144-8.606-12.153-16.83-17.062-26.249-12.61-24.193-24.977-58.314-10.095-84.177 2.105-3.658 4.713-7.007 7.663-10.02 7.775-7.941 18.118-12.283 29.214-12.283q.443 0 .888.01c12.834.266 24.997 3.913 33.95 13.379 21.204 22.42 14.857 57.078 6.941 83.797-3.399 11.47-7.554 22.697-11.8 33.875-.606 1.595 13.329 9.548 15.011 10.429 5.699 2.985 11.854 5.121 18.236 6.017 7.435 1.045 16.612-.919 21.229-7.336 9.097-12.644 9.207-30.119 10.481-45.076 2.481-25.222 1.68-50.823.937-76.108-.035-1.169-.382-13.688-.512-13.688l7.912-.158.001-.04 32.451.198c-.204 26.631 2.678 53.532 8.385 76.322 3.781 15.101 11.573 39.299 24.415 53.538 7.326 8.121 20.178 14.435 30.74 10.884 11.982-4.029 14.672-25.311 14.561-31.181-.085-4.478-1.951-17.645-2.5-23.828-2.336-26.315-5.991-53.332 12.736-74.346 9.394-10.542 22.413-16.107 38.694-16.537a57 57 0 0 1 1.545-.021c19.404.001 34.397 9.729 45.276 19.028a92.6 92.6 0 0 1 16.257-10.425c9.834-4.927 19.141-6.9 27.777-6.899 27.055.002 47.48 19.377 56.533 27.967z" clip-path="url(#c)" style="fill:#e5fc2a;fill-opacity:1;fill-rule:nonzero;stroke:none" transform="matrix(.20152 0 0 -.18084 73.712 108.488)"/></svg>