<svg xmlns:inkscape="http://www.inkscape.org/namespaces/inkscape" xmlns:sodipodi="http://sodipodi.sourceforge.net/DTD/sodipodi-0.dtd" xmlns="http://www.w3.org/2000/svg" xmlns:svg="http://www.w3.org/2000/svg" version="1.1" id="svg1" inkscape:export-filename="Logo 1 horizontal fundo branco.png" inkscape:export-xdpi="96" inkscape:export-ydpi="96" inkscape:version="1.4 (86a8ad7, 2024-10-11)" sodipodi:docname="LoGO Horizonta l 500 x 281.svg" viewBox="0.97 76.19 506.05 63.78">
  <sodipodi:namedview id="namedview1" pagecolor="#ffffff" bordercolor="#000000" borderopacity="0.25" inkscape:showpageshadow="2" inkscape:pageopacity="0.0" inkscape:pagecheckerboard="0" inkscape:deskcolor="#d1d1d1" inkscape:document-units="mm" inkscape:zoom="0.33" inkscape:cx="843.93939" inkscape:cy="534.84848" inkscape:window-width="1920" inkscape:window-height="1009" inkscape:window-x="-8" inkscape:window-y="-8" inkscape:window-maximized="1" inkscape:current-layer="g18" showgrid="false"/>
  <defs id="defs1">
    <inkscape:path-effect effect="spiro" id="path-effect8-3-8-6-8" is_visible="true" lpeversion="1"/>
    <inkscape:path-effect effect="spiro" id="path-effect10-7-80-9-0-3" is_visible="true" lpeversion="1"/>
    <inkscape:path-effect effect="spiro" id="path-effect9-8-0-6-4" is_visible="true" lpeversion="1"/>
    <inkscape:path-effect effect="spiro" id="path-effect10-8-7-6-84" is_visible="true" lpeversion="1"/>
    <rect x="616.66669" y="2110.4167" width="470.71774" height="148.84662" id="rect23-3-2-3-3-1"/>
    <clipPath clipPathUnits="userSpaceOnUse" id="clipPath213-2-1-0-7">
      <path d="M 0,1080 H 1920 V 0 H 0 Z" transform="translate(-1531.0117,-346.08401)" id="path213-6-4-2-3"/>
    </clipPath>
    <clipPath clipPathUnits="userSpaceOnUse" id="clipPath215-4-8-2-0">
      <path d="M 0,1080 H 1920 V 0 H 0 Z" transform="translate(-1537.4277,-522.89981)" id="path215-0-49-3-0"/>
    </clipPath>
    <clipPath clipPathUnits="userSpaceOnUse" id="clipPath168">
      <path d="M 0,2010 H 2835 V 0 H 0 Z" transform="translate(-873.33452,-1140.0063)" id="path168"/>
    </clipPath>
    <clipPath clipPathUnits="userSpaceOnUse" id="clipPath170">
      <path d="M 0,2010 H 2835 V 0 H 0 Z" transform="translate(-1095.0855,-1140.0063)" id="path170"/>
    </clipPath>
    <clipPath clipPathUnits="userSpaceOnUse" id="clipPath172">
      <path d="M 0,2010 H 2835 V 0 H 0 Z" transform="translate(-1222.1145,-849.76135)" id="path172"/>
    </clipPath>
    <clipPath clipPathUnits="userSpaceOnUse" id="clipPath174">
      <path d="M 0,2010 H 2835 V 0 H 0 Z" transform="translate(-1374.9068,-1084.8717)" id="path174"/>
    </clipPath>
    <clipPath clipPathUnits="userSpaceOnUse" id="clipPath176">
      <path d="M 0,2010 H 2835 V 0 H 0 Z" transform="translate(-1547.67,-953.3359)" id="path176"/>
    </clipPath>
    <clipPath clipPathUnits="userSpaceOnUse" id="clipPath178">
      <path d="M 0,2010 H 2835 V 0 H 0 Z" transform="translate(-1900.743,-966.0502)" id="path178"/>
    </clipPath>
    <clipPath clipPathUnits="userSpaceOnUse" id="clipPath180">
      <path d="M 0,2010 H 2835 V 0 H 0 Z" transform="translate(-2026.3553,-999.80665)" id="path180"/>
    </clipPath>
    <clipPath clipPathUnits="userSpaceOnUse" id="clipPath182">
      <path d="M 0,2010 H 2835 V 0 H 0 Z" transform="translate(-2250.2678,-1140.0063)" id="path182"/>
    </clipPath>
    <clipPath clipPathUnits="userSpaceOnUse" id="clipPath184">
      <path d="M 0,2010 H 2835 V 0 H 0 Z" transform="translate(-2465.9521,-953.3359)" id="path184"/>
    </clipPath>
    <clipPath clipPathUnits="userSpaceOnUse" id="clipPath186">
      <path d="M 0,2010 H 2835 V 0 H 0 Z" transform="translate(-613.16252,-848.62435)" id="path186"/>
    </clipPath>
    <clipPath clipPathUnits="userSpaceOnUse" id="clipPath188">
      <path d="M 0,2010 H 2835 V 0 H 0 Z" transform="translate(-329.64526,-986.6602)" id="path188"/>
    </clipPath>
    <clipPath clipPathUnits="userSpaceOnUse" id="clipPath190">
      <path d="M 0,2010 H 2835 V 0 H 0 Z" transform="translate(-529.39951,-1078.9791)" id="path190"/>
    </clipPath>
    <clipPath clipPathUnits="userSpaceOnUse" id="clipPath192">
      <path d="M 0,2010 H 2835 V 0 H 0 Z" transform="translate(-698.82602,-1008.8002)" id="path192"/>
    </clipPath>
    <clipPath clipPathUnits="userSpaceOnUse" id="clipPath194">
      <path d="M 0,2010 H 2835 V 0 H 0 Z" transform="translate(-632.94077,-1097.7853)" id="path194"/>
    </clipPath>
  </defs>
  <g inkscape:label="Camada 1" inkscape:groupmode="layer" id="layer1" transform="translate(217.67992,-5.4119318)">
    <g id="g18" transform="matrix(2.7600188,0,0,2.7600188,-335.20004,-3474.0398)" inkscape:export-filename="Logo 1 horizontal.png" inkscape:export-xdpi="96" inkscape:export-ydpi="96">
      <path id="path167" d="m 0,0 c 2.75,0 5.582,-2.174 6.293,-4.83 l 46.219,-172.702 c 0.68,-2.544 4.29,-2.544 4.971,0 L 103.702,-4.83 c 0.711,2.656 3.543,4.83 6.293,4.83 h 38.207 c 2.75,0 4.508,-2.196 3.907,-4.879 L 91.488,-275.52 c -0.601,-2.684 -3.343,-4.88 -6.093,-4.88 h -60.52 c -2.75,0 -5.494,2.196 -6.097,4.879 L -42.11,-4.878 C -42.713,-2.195 -40.957,0 -38.207,0 Z" style="fill:#0e454e;fill-opacity:1;fill-rule:nonzero;stroke:none;stroke-width:0;stroke-dasharray:none" transform="matrix(0.07939064,0,0,-0.07670737,89.860661,1289.024)" clip-path="url(#clipPath168)"/>
      <path id="path169" d="m 0,0 c 2.75,0 5,-2.25 5,-5 v -270.4 c 0,-2.75 -2.25,-5 -5,-5 h -36.279 c -2.75,0 -5,2.25 -5,5 V -5 c 0,2.75 2.25,5 5,5 z" style="fill:#0e454e;fill-opacity:1;fill-rule:nonzero;stroke:none;stroke-width:0;stroke-dasharray:none" transform="matrix(0.07939064,0,0,-0.07670737,107.46561,1289.024)" clip-path="url(#clipPath170)"/>
      <path id="path171" d="m 0,0 c -45.83,0 -79.791,36.268 -84.98,88.007 -0.751,7.479 5.062,13.992 12.578,13.992 h 16.664 c 6.263,0 11.511,-4.597 12.506,-10.781 3.95,-24.547 21.42,-41.203 44.609,-41.203 22.589,0 36.638,16.147 36.638,38.594 0,26.386 -21.211,30.324 -45.453,34.657 -38.841,7.088 -76.304,18.903 -76.304,84.277 0,54.741 32.781,92.548 80.161,92.548 43.607,0 76.144,-34.295 81.357,-83.27 0.796,-7.478 -5.059,-14.004 -12.58,-14.004 H 49.958 c -6.166,0 -11.451,4.446 -12.462,10.528 -3.646,21.917 -19.428,36.73 -39.975,36.73 -21.762,0 -36.086,-14.571 -36.086,-35.05 0,-26.385 19.558,-30.324 44.35,-35.049 C 43.8,173.674 83.192,161.86 83.192,97.274 83.192,39.776 49.86,0 0,0" style="fill:#0e454e;fill-opacity:1;fill-rule:nonzero;stroke:none;stroke-width:0;stroke-dasharray:none" transform="matrix(0.07939064,0,0,-0.07670737,117.55053,1311.2879)" clip-path="url(#clipPath172)"/>
      <path id="path173" d="m 0,0 h -51.377 c -2.75,0 -5,2.25 -5,5 v 45.135 c 0,2.75 2.25,5 5,5 h 154.179 c 2.75,0 5,-2.25 5,-5 V 5 c 0,-2.75 -2.25,-5 -5,-5 H 51.425 c -1.421,0 -2.573,-1.152 -2.573,-2.573 v -217.692 c 0,-2.75 -2.25,-5 -5,-5 H 7.573 c -2.75,0 -5,2.25 -5,5 V -2.573 C 2.573,-1.152 1.421,0 0,0" style="fill:#0e454e;fill-opacity:1;fill-rule:nonzero;stroke:none;stroke-width:0;stroke-dasharray:none" transform="matrix(0.07939064,0,0,-0.07670737,129.6808,1293.2533)" clip-path="url(#clipPath174)"/>
      <path id="path175" d="m 0,0 h 55.194 c 1.661,0 2.887,1.551 2.503,3.167 L 30.1,119.415 c -0.626,2.638 -4.38,2.638 -5.007,0 L -2.504,3.167 C -2.887,1.551 -1.661,0 0,0 m -21.963,-88.858 c -0.62,-2.679 -3.376,-4.871 -6.126,-4.871 h -38.758 c -2.75,0 -4.486,2.19 -3.857,4.867 l 63.551,270.665 c 0.629,2.677 3.393,4.867 6.143,4.867 h 57.214 c 2.75,0 5.513,-2.191 6.139,-4.868 L 125.627,-88.86 c 0.626,-2.678 -1.111,-4.869 -3.861,-4.869 H 83.283 c -2.75,0 -5.507,2.192 -6.126,4.871 l -8.491,36.728 c -0.619,2.679 -3.376,4.872 -6.126,4.872 H -7.346 c -2.75,0 -5.507,-2.193 -6.126,-4.872 z" style="fill:#0e454e;fill-opacity:1;fill-rule:nonzero;stroke:none;stroke-width:0;stroke-dasharray:none" transform="matrix(0.07939064,0,0,-0.07670737,143.39659,1303.343)" clip-path="url(#clipPath176)"/>
      <path id="path177" d="m 0,0 v 168.956 c 0,2.75 2.25,5 5,5 h 34.075 c 2.75,0 5,-2.25 5,-5 v -270.399 c 0,-2.75 -2.25,-5 -5,-5 H -1.887 c -2.75,0 -5.86,2.078 -6.912,4.619 l -76.318,184.34 c -1.089,2.631 -5.012,1.806 -4.95,-1.041 l 4.011,-182.92 c 0.061,-2.749 -2.14,-4.998 -4.89,-4.998 h -33.799 c -2.75,0 -5,2.25 -5,5 v 270.399 c 0,2.75 2.25,5 5,5 h 40.961 c 2.75,0 5.875,-2.073 6.945,-4.606 L -4.944,-1 C -3.853,-3.586 0,-2.806 0,0" style="fill:#0e454e;fill-opacity:1;fill-rule:nonzero;stroke:none;stroke-width:0;stroke-dasharray:none" transform="matrix(0.07939064,0,0,-0.07670737,171.42728,1302.3677)" clip-path="url(#clipPath178)"/>
      <path id="path179" d="m 0,0 c 0,-54.741 25.618,-92.941 62.256,-93.335 36.637,0 62.256,38.594 62.256,93.335 0,54.741 -25.619,93.335 -62.256,93.335 C 25.618,93.335 0,54.741 0,0 m -46.279,0 c 0,88.609 44.075,150.045 108.535,150.045 64.184,0 108.534,-61.436 108.534,-150.045 0,-89.003 -44.35,-150.045 -108.534,-150.045 -64.46,0 -108.535,61.042 -108.535,150.045" style="fill:#0e454e;fill-opacity:1;fill-rule:nonzero;stroke:none;stroke-width:0;stroke-dasharray:none" transform="matrix(0.07939064,0,0,-0.07670737,181.39973,1299.7784)" clip-path="url(#clipPath180)"/>
      <path id="path181" d="m 0,0 c 2.75,0 5.582,-2.173 6.293,-4.83 l 46.219,-172.56 c 0.681,-2.544 4.29,-2.544 4.971,0 l 46.218,172.56 c 0.711,2.657 3.543,4.83 6.293,4.83 h 38.208 c 2.75,0 4.508,-2.196 3.907,-4.879 L 91.488,-275.52 c -0.601,-2.684 -3.343,-4.88 -6.093,-4.88 h -60.52 c -2.75,0 -5.494,2.196 -6.097,4.879 L -42.109,-4.878 C -42.713,-2.195 -40.957,0 -38.207,0 Z" style="fill:#0e454e;fill-opacity:1;fill-rule:nonzero;stroke:none;stroke-width:0;stroke-dasharray:none" transform="matrix(0.07939064,0,0,-0.07670737,199.17628,1289.024)" clip-path="url(#clipPath182)"/>
      <path id="path183" d="m 0,0 h 55.194 c 1.661,0 2.887,1.551 2.504,3.167 L 30.1,119.415 c -0.626,2.638 -4.38,2.638 -5.007,0 L -2.504,3.167 C -2.887,1.551 -1.661,0 0,0 m -21.963,-88.858 c -0.62,-2.679 -3.376,-4.871 -6.126,-4.871 h -38.758 c -2.75,0 -4.486,2.19 -3.857,4.867 l 63.551,270.665 c 0.628,2.677 3.393,4.867 6.143,4.867 h 57.213 c 2.75,0 5.513,-2.191 6.139,-4.868 L 125.627,-88.86 c 0.626,-2.678 -1.112,-4.869 -3.862,-4.869 H 83.283 c -2.75,0 -5.507,2.192 -6.126,4.871 l -8.491,36.728 c -0.619,2.679 -3.376,4.872 -6.126,4.872 H -7.346 c -2.75,0 -5.507,-2.193 -6.126,-4.872 z" style="fill:#0e454e;fill-opacity:1;fill-rule:nonzero;stroke:none;stroke-width:0;stroke-dasharray:none" transform="matrix(0.07939064,0,0,-0.07670737,216.29958,1303.343)" clip-path="url(#clipPath184)"/>
      <path id="path185" d="m 0,0 c -48.635,-0.295 -97.405,25.081 -129.091,51.577 -4.027,3.26 -7.965,7.439 -6.762,12.764 1.628,7.313 8.646,16.173 17.014,18.024 4.462,0.964 9.113,-0.539 14.12,-3.599 38.248,-28.081 74.296,-43.729 111.49,-41.446 38.305,1.815 74.784,21.598 106.25,49.478 4.923,3.711 9.609,5.234 14.846,3.206 7.787,-3.186 15.198,-11.108 15.452,-19.205 -0.046,-5.062 -4.334,-9.518 -8.16,-13.089 C 118.815,42.752 101.283,30.257 81.932,20.407 56.339,7.43 28.414,-0.282 0.207,-0.002 Z" style="fill:#e5fc2a;fill-opacity:1;fill-rule:nonzero;stroke:none;stroke-width:0;stroke-dasharray:none" transform="matrix(0.07939064,0,0,-0.07670737,69.205439,1311.3752)" clip-path="url(#clipPath186)"/>
      <path id="path187" d="m 0,0 -0.119,-0.045 c -3.996,-1.416 -7.695,1.998 -9.524,5.317 -5.318,10.019 -3.218,23.187 -0.28,33.902 1.621,5.765 3.954,12.401 6.184,15.193 C 3.039,63.208 5.682,34.276 6.295,30.612 7.029,21.449 8.772,4.184 0,0 m 200.98,89.088 c 0.078,-0.237 0.147,-0.476 0.222,-0.714 h 27.71 c 4.433,0 7.732,4.143 6.664,8.431 -13.587,54.538 -71.951,63.733 -108.299,16.611 -12.764,-18.51 -14.643,-8.275 -23.142,5.75 -16.002,26.585 -46.905,29.993 -74.276,19.21 -5.409,-1.959 -11.369,-5.808 -16.926,-6.128 -9.492,-0.559 -19.496,15.218 -29.905,12.982 -8.367,-1.624 -19.791,-11.286 -17.796,-21.427 1.122,-5.901 10.893,-10.37 12.353,-16.796 2.443,-8.545 -0.63,-16.896 -4.995,-24.563 -10.336,-19.079 -19.638,-39.438 -19.995,-61.541 -0.312,-16.584 5.246,-34.495 18.207,-45.414 13.675,-12.162 35.52,-12.404 49.999,-1.898 9.197,6.391 14.748,16.836 17.66,27.503 6.325,24.717 -1.544,51.451 -9.114,74.541 -6.86,17.466 1.965,26.552 18.653,31.558 8.405,2.337 16.927,2.917 23.143,-3.664 8.473,-9.139 11.708,-23.333 13.221,-35.61 3.237,-24.544 3.185,-51.216 1.995,-76.012 -0.133,-3.734 -0.41,-7.883 0.05,-11.334 0.615,-7.24 7.064,-9.048 13.765,-9.34 5.371,-0.269 11.928,-0.265 16.294,0.936 7.523,1.585 9.053,9.053 9.27,15.978 1.776,38.766 6.498,82.493 36.1,110.675 14.741,12.872 32.795,9.705 39.142,-9.734" style="fill:#e5fc2a;fill-opacity:1;fill-rule:nonzero;stroke:none;stroke-width:0;stroke-dasharray:none" transform="matrix(0.07939064,0,0,-0.07670737,46.696822,1300.7869)" clip-path="url(#clipPath188)"/>
      <path id="path189" d="m 0,0 c 0.3,-0.663 0.712,-1.644 1.103,-2.863 1.428,-4.448 1.344,-8.206 1.273,-9.951 -0.429,-10.453 -1.752,-15.497 -2.408,-22.869 -2.249,-25.256 -5.769,-51.186 12.264,-71.355 9.047,-10.118 21.583,-15.459 37.262,-15.872 0.499,-0.013 0.994,-0.02 1.488,-0.02 18.685,0.001 33.123,9.337 43.599,18.263 4.893,-3.891 10.131,-7.248 15.655,-10.006 9.47,-4.729 18.432,-6.622 26.748,-6.621 26.054,0.002 45.723,18.597 54.44,26.841 l -21.998,24.274 c -19.279,-18.232 -32.262,-16.075 -42.368,-11.028 -2.123,1.06 -4.148,2.256 -6.078,3.576 6.157,7.496 12.452,16.238 17.963,25.983 11.574,20.468 16.822,40.308 15.598,58.969 C 152.921,32.02 132.735,51.013 107.588,51.5 93.568,51.79 81.169,46.582 71.624,36.495 63.968,28.402 58.699,17.619 56.388,5.312 c -4.179,-22.257 -1.654,-46.309 7.108,-67.729 1.957,-4.781 4.203,-9.358 6.718,-13.704 -7.364,-6.266 -13.342,-9.513 -19.725,-9.371 -7.392,0.195 -9.519,2.574 -10.219,3.356 -7.226,8.082 -4.963,33.475 -3.612,48.646 0.588,6.602 1.144,12.839 1.249,18.441 C 38.035,-8.312 37.169,-2.028 35.968,3.9 35.691,5.267 34.339,6.151 32.977,5.828 22.072,3.239 10.953,2.95 -0.295,2.89 -0.187,2.564 0.017,1.912 0.017,1.912 -0.058,1.431 -0.134,0.95 -0.209,0.469" style="fill:#e5fc2a;fill-opacity:1;fill-rule:nonzero;stroke:none;stroke-width:0;stroke-dasharray:none" transform="matrix(0.07939064,0,0,-0.07670737,62.55544,1293.7053)" clip-path="url(#clipPath190)"/>
      <path id="path191" d="m 0,0 c 4.242,-9.717 5.038,-22.653 21.998,-24.274 1.148,1.073 2.345,2.179 3.438,3.305 7.386,8.385 -0.442,17.504 -8.499,21.986 C 9.567,5.104 5.921,3.86 0,0" style="fill:#e5fc2a;fill-opacity:1;fill-rule:nonzero;stroke:none;stroke-width:0;stroke-dasharray:none" transform="matrix(0.07939064,0,0,-0.07670737,76.00632,1299.0885)" clip-path="url(#clipPath192)"/>
      <path id="path193" d="m 0,0 c -22.128,-10.043 -24.32,-49.758 -9.956,-67.286 7.672,-7.428 13.603,5.239 16.39,11.313 3.706,8.243 6.81,16.602 8.701,25.052 1.506,7.058 2.516,14.713 0.53,21.73 -1.797,7.089 -8.164,12.258 -15.507,9.25 z" style="fill:#ffffff;fill-opacity:1;fill-rule:nonzero;stroke:none;stroke-width:0;stroke-dasharray:none" transform="matrix(0.07939064,0,0,-0.07670737,70.775647,1292.2628)" clip-path="url(#clipPath194)"/>
    </g>
  </g>
</svg>