<svg xmlns="http://www.w3.org/2000/svg" xmlns:xlink="http://www.w3.org/1999/xlink" width="1000" height="1000"><defs><linearGradient id="a"><stop offset="0" style="stop-color:#0e454e;stop-opacity:1"/></linearGradient><linearGradient xlink:href="#a" id="b" x1="6.416" x2="996.888" y1="500" y2="500" gradientTransform="translate(-1.652)" gradientUnits="userSpaceOnUse"/><path id="d" d="M135.959 296.061h527.319v320.203H135.959z"/><path id="c" d="M135.959 296.061h527.319v320.203H135.959z"/><clipPath id="e" clipPathUnits="userSpaceOnUse"><path d="M-1531.012 733.916h1920v-1080h-1920Z"/></clipPath></defs><path d="M964.315 469.873a465.3 463.127 0 0 1-433.722 492.251 465.3 463.127 0 0 1-494.865-431.35 465.3 463.127 0 0 1 433.03-492.855 465.3 463.127 0 0 1 495.47 430.662" style="fill:#0e454e;fill-opacity:1;stroke:url(#b);stroke-width:59.871;stroke-linejoin:round;stroke-miterlimit:3.9;stroke-dasharray:none;stroke-opacity:1;paint-order:stroke fill markers"/><path d="M-257.196-931.271a81.884 104.348 0 0 1-76.327 110.91 81.884 104.348 0 0 1-87.087-97.189 81.884 104.348 0 0 1 76.205-111.046 81.884 104.348 0 0 1 87.194 97.034" style="fill:#0e454e;fill-opacity:1;stroke:#0e454e;stroke-width:59.871;stroke-linejoin:round;stroke-miterlimit:3.9;stroke-dasharray:none;stroke-opacity:1;paint-order:stroke fill markers" transform="rotate(137.71)"/><g style="stroke-width:.999606;stroke-dasharray:none"><g style="stroke-width:.999606;stroke-dasharray:none"><text xml:space="preserve" style="font-weight:700;font-size:116.054px;line-height:1.26;font-family:&quot;Neue Metana&quot;;-inkscape-font-specification:&quot;Neue Metana Bold&quot;;text-align:justify;writing-mode:lr-tb;direction:ltr;white-space:pre;shape-inside:url(#c);display:inline;fill:#fff;fill-opacity:1;stroke:#e5fc2a;stroke-width:.203907;stroke-linejoin:round;stroke-miterlimit:3.9;stroke-dasharray:none;stroke-opacity:.65098;paint-order:stroke fill markers" transform="matrix(4.79289 0 0 4.61502 -153.045 -1189.527)"><tspan x="135.959" y="397.968">N</tspan></text><text xml:space="preserve" style="font-weight:700;font-size:116.054px;line-height:1.26;font-family:&quot;Neue Metana&quot;;-inkscape-font-specification:&quot;Neue Metana Bold&quot;;text-align:justify;writing-mode:lr-tb;direction:ltr;white-space:pre;shape-inside:url(#d);display:inline;fill:#fff;fill-opacity:1;stroke:#e5fc2a;stroke-width:.203907;stroke-linejoin:round;stroke-miterlimit:3.9;stroke-dasharray:none;stroke-opacity:.65098;paint-order:stroke fill markers" transform="matrix(4.79289 0 0 4.61502 -549.047 -1190.598)"><tspan x="135.959" y="397.968">V</tspan></text></g><path d="m0 0-.942.002C-60.939.347-110.7 33.079-141.88 60.477l23.764 27.043C-69.979 45.221-27.715 36.156-.735 36.002q.349-.003.699-.002c41.64 0 86.216 21.374 122.416 58.727l25.851-25.055c-20.032-20.669-43.242-37.854-67.121-49.695C54.376 6.719 27.093 0 0 0" clip-path="url(#e)" style="fill:#e5fc2a;fill-opacity:1;fill-rule:nonzero;stroke:none;stroke-width:.641166;stroke-dasharray:none" transform="matrix(1.31983 0 0 -1.17031 450.083 820.255)"/></g></svg>