<?xml version="1.0" encoding="UTF-8"?>
<svg id="svg1" xmlns="http://www.w3.org/2000/svg" xmlns:svg="http://www.w3.org/2000/svg" xmlns:sodipodi="http://sodipodi.sourceforge.net/DTD/sodipodi-0.dtd" xmlns:inkscape="http://www.inkscape.org/namespaces/inkscape" version="1.1" viewBox="0 0 8192.29 1714.07">
  <!-- Generator: Adobe Illustrator 29.5.1, SVG Export Plug-In . SVG Version: 2.1.0 Build 141)  -->
  <defs>
    <style>
      .st0 {
        font-size: 127.68px;
      }

      .st0, .st1, .st2 {
        fill: #0e454e;
      }

      .st0, .st3, .st4 {
        isolation: isolate;
      }

      .st0, .st4 {
        font-family: Objectivity-Bold, Objectivity;
        font-weight: 700;
      }

      .st4 {
        font-size: 152.17px;
      }

      .st4, .st5 {
        fill: #fff;
      }

      .st6 {
        fill: #e5fc2a;
      }

      .st2 {
        stroke: #0e454e;
        stroke-linejoin: round;
        stroke-width: 2.38px;
      }
    </style>
  </defs>
  <sodipodi:namedview id="namedview1" bordercolor="#000000" borderopacity="0.25" inkscape:current-layer="layer1" inkscape:cx="11814.815" inkscape:cy="55.555556" inkscape:deskcolor="#d1d1d1" inkscape:document-units="mm" inkscape:pagecheckerboard="0" inkscape:pageopacity="0.0" inkscape:showpageshadow="2" inkscape:window-height="1009" inkscape:window-maximized="1" inkscape:window-width="1920" inkscape:window-x="-8" inkscape:window-y="-8" inkscape:zoom="0.027" pagecolor="#ffffff">
    <inkscape:page id="page1" x="0" y="0" width="4650" height="970" bleed="0" margin="0"/>
    <inkscape:page id="page2" x="4823.7896" y="8.3994703" width="3900" height="970" bleed="0" margin="0"/>
  </sodipodi:namedview>
  <g id="_x3C_defs">
    <inkscape:path-effect id="path-effect10-7-80-9-0-4-1-8" effect="spiro" is_visible="true" lpeversion="1"/>
  </g>
  <path id="rect22" class="st1" d="M5136.35,1.52L8200.16-.1l9.39,1721.3-2412.8-9.1L5136.36,1.53h0,0Z" sodipodi:nodetypes="ccccc"/>
  <path id="rect22-0" class="st6" d="M5118.92-.63l207.99,2.47,654.41,1712.73-191.31.52L5118.92-.62h0Z" sodipodi:nodetypes="ccccc"/>
  <g class="st3">
    <g class="st3">
      <g class="st3">
        <g class="st3">
          <text class="st0" transform="translate(406.52 290.54)"><tspan x="0" y="0">CRÉDITO HABITAÇÃO</tspan></text>
        </g>
      </g>
    </g>
    <g class="st3">
      <g class="st3">
        <g class="st3">
          <text class="st0" transform="translate(406.52 597)"><tspan x="0" y="0">CRÉDITO AUTOMÓVEL</tspan></text>
        </g>
      </g>
    </g>
    <g class="st3">
      <g class="st3">
        <g class="st3">
          <text class="st0" transform="translate(406.52 903.43)"><tspan x="0" y="0">CRÉDITO PESSOAL</tspan></text>
        </g>
      </g>
    </g>
    <g class="st3">
      <g class="st3">
        <g class="st3">
          <text class="st0" transform="translate(406.52 1209.88)"><tspan x="0" y="0">CRÉDITO PARA OBRAS</tspan></text>
        </g>
      </g>
    </g>
    <g class="st3">
      <g class="st3">
        <g class="st3">
          <text class="st0" transform="translate(406.52 1516.33)"><tspan x="0" y="0">AUTOCONSTRUÇÃO</tspan></text>
        </g>
      </g>
    </g>
  </g>
  <path id="path43" class="st6" d="M306.92,250.76c1.42,20.51-14.99,38.24-36.65,39.6-21.66,1.35-40.37-14.18-41.81-34.69-1.44-20.51,14.94-38.25,36.59-39.65,21.66-1.37,40.39,14.13,41.86,34.63" sodipodi:arc-type="arc" sodipodi:cx="149.55054" sodipodi:cy="188.22054" sodipodi:end="6.2152917" sodipodi:open="true" sodipodi:rx="19.334934" sodipodi:ry="18.317307" sodipodi:start="6.2180871" sodipodi:type="arc"/>
  <path id="path43-5" class="st6" d="M306.92,556.28c1.42,20.51-14.99,38.24-36.65,39.6s-40.37-14.18-41.81-34.69c-1.44-20.51,14.94-38.25,36.59-39.65s40.39,14.13,41.86,34.63" sodipodi:arc-type="arc" sodipodi:cx="149.02141" sodipodi:cy="338.4632" sodipodi:end="6.2152917" sodipodi:open="true" sodipodi:rx="19.334934" sodipodi:ry="18.317307" sodipodi:start="6.2180871" sodipodi:type="arc"/>
  <path id="path43-5-0" class="st6" d="M306.92,868.34c1.42,20.51-14.99,38.24-36.65,39.6s-40.37-14.18-41.81-34.69,14.94-38.25,36.59-39.65c21.66-1.37,40.39,14.13,41.86,34.63" sodipodi:arc-type="arc" sodipodi:cx="149.50951" sodipodi:cy="491.92184" sodipodi:end="6.2152917" sodipodi:open="true" sodipodi:rx="19.334934" sodipodi:ry="18.317307" sodipodi:start="6.2180871" sodipodi:type="arc"/>
  <path id="path43-5-8" class="st6" d="M306.92,1172.85c1.42,20.51-14.99,38.24-36.65,39.6-21.66,1.35-40.37-14.18-41.81-34.69s14.94-38.25,36.59-39.65c21.66-1.37,40.39,14.13,41.86,34.63" sodipodi:arc-type="arc" sodipodi:cx="150.30354" sodipodi:cy="641.67462" sodipodi:end="6.2152917" sodipodi:open="true" sodipodi:rx="19.334934" sodipodi:ry="18.317307" sodipodi:start="6.2180871" sodipodi:type="arc"/>
  <path id="path43-5-8-4" class="st6" d="M306.92,1473.08c1.42,20.51-14.99,38.24-36.65,39.6-21.66,1.35-40.37-14.18-41.81-34.69s14.94-38.25,36.59-39.65c21.66-1.37,40.39,14.13,41.86,34.63" sodipodi:arc-type="arc" sodipodi:cx="150.03818" sodipodi:cy="789.31335" sodipodi:end="6.2152917" sodipodi:open="true" sodipodi:rx="19.334934" sodipodi:ry="18.317307" sodipodi:start="6.2180871" sodipodi:type="arc"/>
  <path id="path43-8" class="st6" d="M2733.44,250.76c1.42,20.51-14.99,38.24-36.65,39.6s-40.37-14.18-41.81-34.69c-1.44-20.51,14.94-38.25,36.59-39.65,21.66-1.37,40.39,14.13,41.86,34.63" sodipodi:arc-type="arc" sodipodi:cx="1342.923" sodipodi:cy="188.03731" sodipodi:end="6.2152917" sodipodi:open="true" sodipodi:rx="19.334934" sodipodi:ry="18.317307" sodipodi:start="6.2180871" sodipodi:type="arc"/>
  <path id="path43-5-82" class="st6" d="M2733.44,556.28c1.42,20.51-14.99,38.24-36.65,39.6s-40.37-14.18-41.81-34.69c-1.44-20.51,14.94-38.25,36.59-39.65,21.66-1.37,40.39,14.13,41.86,34.63" sodipodi:arc-type="arc" sodipodi:cx="1342.3938" sodipodi:cy="338.28003" sodipodi:end="6.2152917" sodipodi:open="true" sodipodi:rx="19.334934" sodipodi:ry="18.317307" sodipodi:start="6.2180871" sodipodi:type="arc"/>
  <path id="path43-5-0-9" class="st6" d="M2733.44,868.34c1.42,20.51-14.99,38.24-36.65,39.6-21.66,1.35-40.37-14.18-41.81-34.69s14.94-38.25,36.59-39.65c21.66-1.37,40.39,14.13,41.86,34.63" sodipodi:arc-type="arc" sodipodi:cx="1342.882" sodipodi:cy="491.73868" sodipodi:end="6.2152917" sodipodi:open="true" sodipodi:rx="19.334934" sodipodi:ry="18.317307" sodipodi:start="6.2180871" sodipodi:type="arc"/>
  <path id="path43-5-8-1" class="st6" d="M2733.44,1172.85c1.42,20.51-14.99,38.24-36.65,39.6s-40.37-14.18-41.81-34.69,14.94-38.25,36.59-39.65c21.66-1.39,40.39,14.13,41.86,34.63" sodipodi:arc-type="arc" sodipodi:cx="1343.676" sodipodi:cy="641.49146" sodipodi:end="6.2152917" sodipodi:open="true" sodipodi:rx="19.334934" sodipodi:ry="18.317307" sodipodi:start="6.2180871" sodipodi:type="arc"/>
  <rect id="rect29" class="st2" x="1.3" y="1851.95" width="6918.95" height="1726.29"/>
  <g class="st3">
    <g class="st3">
      <g class="st3">
        <g class="st3">
          <text class="st4" transform="translate(962.22 3236.64)"><tspan x="0" y="0">AJUDAMOS OS NOSSOS CLIENTES A DECIDIREM MELHOR...</tspan></text>
        </g>
      </g>
    </g>
  </g>
  <path class="st5" d="M2614.4,2370.32s.58,2.17,1.29,4.83l68.92,257.55c.71,2.66,2.74,5.69,4.52,6.75s4.84-4.09,5.55-6.75l68.92-257.55c.71-2.66,3.54-4.83,6.29-4.83h62.56c2.75,0,4.51,2.2,3.91,4.88l-92.35,412.27c-.6,2.68-3.34,4.88-6.09,4.88h-96.14c-2.75,0-5.49-2.2-6.1-4.88l-92.75-412.27c-.6-2.68,1.15-4.88,3.9-4.88h62.57c2.75,0,5,0,5,0Z"/>
  <path class="st5" d="M2948.16,2370.32v417.03c0,2.75-2.25,5-5,5h-59.65c-2.75,0-5-2.25-5-5v-412.03c0-2.75,2.25-5,5-5h59.65c2.75,0,5,0,5,0Z"/>
  <path class="st5" d="M3131.83,2807.17c-68.98,0-120.1-54.59-127.91-132.46-1.13-11.25,7.62-21.06,18.93-21.06h25.07c9.43,0,17.33,6.92,18.82,16.23,5.94,36.95,32.24,62.01,67.15,62.01s55.14-24.3,55.14-58.08c0-39.72-31.92-45.64-68.42-52.16-58.46-10.67-114.85-28.45-114.85-126.85,0-82.39,49.34-139.29,120.64-139.29,65.63,0,114.6,51.61,122.45,125.33,1.19,11.25-7.62,21.08-18.93,21.08h-22.94c-9.28,0-17.23-6.69-18.76-15.84-5.49-32.99-29.24-55.28-60.16-55.28-32.76,0-54.31,21.93-54.31,52.75,0,39.72,29.43,45.64,66.75,52.75,57.22,9.48,116.5,27.26,116.5,124.47,0,86.54-50.17,146.41-125.21,146.41h.04Z"/>
  <path class="st5" d="M3361.8,2453.31h-79.85c-2.75,0-5-2.25-5-5v-72.98c0-2.75,2.25-5,5-5h237.1c2.75,0,5,2.25,5,5v72.98c0,2.75-2.25,5-5,5h-74.85c-2.75,0-5.87.39-6.94.86s-1.94,5.26-1.94,8.01v325.18c0,2.75-2.25,5-5,5h-59.65c-2.75,0-5-2.25-5-5v-325.18c0-2.75-.39-5.87-.86-6.93s-3.01-1.93-3.01-1.93Z"/>
  <path class="st5" d="M3587.08,2792.35h-68.39c-2.75,0-4.49-2.19-3.86-4.87l96.81-412.29c.63-2.68,3.39-4.87,6.14-4.87h91.17c2.75,0,5.51,2.19,6.14,4.87l96.39,412.29c.63,2.68-1.11,4.87-3.86,4.87h-62.97c-2.75,0-5.51-2.19-6.13-4.87l-13.92-60.21c-.62-2.68-3.38-4.87-6.13-4.87h-110.24c-2.75,0-5.51,2.19-6.13,4.87l-13.92,60.21c-.62,2.68-1.13,4.87-1.13,4.87ZM3621.83,2651.28s2.24,0,4.99,0h73.07c2.75,0,5.98-.52,7.17-1.17s1.08-5.79.45-8.47l-39.22-165.24c-.64-2.68-2.64-5.76-4.45-6.85s-4.76,4.17-5.4,6.85l-39.22,165.24c-.64,2.68-.87,5.94-.52,7.25s3.13,2.39,3.13,2.39Z"/>
  <path class="st5" d="M4153.22,2632.14s0-2.25,0-5v-251.82c0-2.75,2.25-5,5-5h56.33c2.75,0,5,2.25,5,5v412.03c0,2.75-2.25,5-5,5h-66.71c-2.75,0-5.86-2.08-6.91-4.62l-113.91-275.16c-1.05-2.54-3.61-5.23-5.69-5.98s-3.63,5.18-3.57,7.93l5.98,272.83c.06,2.75-2.14,5-4.89,5h-55.93c-2.75,0-5-2.25-5-5v-412.03c0-2.75,2.25-5,5-5h66.71c2.75,0,5.87,2.07,6.94,4.61l107.25,254.12c1.07,2.53,3.62,5.22,5.66,5.97s3.72-2.87,3.72-2.87Z"/>
  <path class="st5" d="M4272.63,2581.35c0-133.37,66.33-225.83,163.36-225.83s163.36,92.47,163.36,225.83-66.75,225.83-163.36,225.83-163.36-91.88-163.36-225.83ZM4342.3,2581.35c0,82.39,38.56,139.89,93.7,140.48,55.14,0,93.7-58.08,93.7-140.48s-38.56-140.48-93.7-140.48-93.7,58.08-93.7,140.48Z"/>
  <path class="st5" d="M4686.83,2370.32s.58,2.17,1.29,4.83l68.92,257.34c.71,2.66,2.74,5.69,4.52,6.74s4.84-4.09,5.55-6.74l68.92-257.34c.71-2.66,3.54-4.83,6.29-4.83h62.56c2.75,0,4.51,2.2,3.91,4.88l-92.35,412.27c-.6,2.68-3.34,4.88-6.09,4.88h-96.14c-2.75,0-5.49-2.2-6.1-4.88l-92.75-412.27c-.6-2.68,1.15-4.88,3.9-4.88h62.56c2.75,0,5,0,5,0Z"/>
  <path class="st5" d="M4969.18,2792.35s-2.25,0-5,0h-63.39c-2.75,0-4.49-2.19-3.86-4.87l96.81-412.29c.63-2.68,3.39-4.87,6.14-4.87h91.17c2.75,0,5.51,2.19,6.14,4.87l96.39,412.29c.63,2.68-1.11,4.87-3.86,4.87h-62.97c-2.75,0-5.51-2.19-6.13-4.87l-13.92-60.21c-.62-2.68-3.38-4.87-6.13-4.87h-110.24c-2.75,0-5.51,2.19-6.13,4.87l-13.92,60.21c-.62,2.68-1.13,4.87-1.13,4.87ZM5003.93,2651.28s2.25,0,5,0h73.07c2.75,0,5.98-.52,7.17-1.17s1.08-5.79.45-8.47l-39.22-165.24c-.64-2.68-2.64-5.76-4.45-6.85s-4.76,4.17-5.4,6.85l-39.22,165.24c-.64,2.68-.87,5.94-.52,7.25s3.13,2.39,3.13,2.39h0Z"/>
  <path class="st6" d="M2215.29,2808.89c-73.2.45-146.6-37.76-194.3-77.63-6.07-4.91-11.99-11.2-10.17-19.21,2.45-11.01,13.02-24.34,25.6-27.13,6.71-1.45,13.72.81,21.25,5.42,57.57,42.27,111.83,65.82,167.81,62.38,57.66-2.73,112.56-32.5,159.92-74.47,7.41-5.59,14.46-7.88,22.35-4.82,11.72,4.8,22.88,16.72,23.26,28.9-.07,7.62-6.52,14.32-12.29,19.7-24.6,22.52-50.98,41.31-80.11,56.15-38.52,19.53-80.55,31.14-123,30.72h-.31v-.02h0Z"/>
  <g>
    <path class="st6" d="M2091.07,2467.05c.12.35.23.72.34,1.08h41.7c6.67,0,11.64-6.23,10.03-12.69-20.45-82.08-108.29-95.92-163-25.01-19.21,27.86-22.04,12.45-34.84-8.65-24.08-40.01-70.6-45.14-111.79-28.91-8.15,2.95-17.11,8.74-25.48,9.22-14.29.84-29.34-22.9-45.01-19.54-12.6,2.45-29.79,16.99-26.78,32.25,1.68,8.89,16.39,15.61,18.6,25.28,3.68,12.86-.94,25.43-7.52,36.96-15.56,28.71-29.55,59.35-30.1,92.63-.46,24.96,7.9,51.92,27.41,68.35,20.58,18.31,53.46,18.66,75.26,2.86,13.84-9.62,22.2-25.34,26.58-41.39,9.52-37.2-2.32-77.44-13.72-112.19-10.32-26.29,2.95-39.96,28.07-47.5,12.65-3.52,25.48-4.39,34.84,5.51,12.76,13.76,17.62,35.12,19.9,53.59,4.87,36.94,4.8,77.08,3,114.41-.2,5.62-.61,11.86.08,17.06.93,10.9,10.63,13.62,20.72,14.06,8.09.4,17.95.4,24.53-1.41,11.33-2.38,13.62-13.62,13.96-24.05,2.67-58.35,9.78-124.16,54.33-166.58,22.18-19.38,49.36-14.61,58.92,14.65h-.03,0ZM1788.57,2601.13l-.18.07c-6.02,2.13-11.59-3-14.34-8-8-15.08-4.85-34.9-.42-51.02,2.44-8.68,5.95-18.66,9.31-22.87,10.2-13.31,14.18,30.24,15.1,35.75,1.1,13.79,3.73,39.77-9.47,46.08h0Z"/>
    <g>
      <path class="st6" d="M2089.23,2462.17c.45.99,1.07,2.47,1.67,4.31,2.15,6.7,2.02,12.35,1.92,14.98-.65,15.73-2.64,23.32-3.63,34.42-3.38,38.02-8.68,77.04,18.46,107.4,13.62,15.23,32.49,23.27,56.08,23.89.76.02,1.5.03,2.24.03,28.12,0,49.85-14.05,65.62-27.49,7.36,5.86,15.25,10.91,23.56,15.06,14.25,7.12,27.74,9.96,40.26,9.96,39.21,0,68.82-27.99,81.94-40.4l-33.11-36.54c-29.02,27.45-48.56,24.19-63.77,16.6-3.19-1.59-6.24-3.4-9.15-5.39,9.26-11.28,18.74-24.44,27.04-39.11,17.43-30.8,25.32-60.67,23.48-88.75-2.44-37.17-32.82-65.76-70.66-66.5-21.1-.44-39.76,7.4-54.13,22.58-11.52,12.18-19.45,28.41-22.93,46.94-6.29,33.5-2.49,69.7,10.7,101.94,2.95,7.19,6.33,14.09,10.11,20.63-11.08,9.43-20.08,14.31-29.69,14.1-11.12-.29-14.33-3.88-15.38-5.06-10.87-12.16-7.47-50.38-5.44-73.22.88-9.94,1.72-19.32,1.88-27.76.19-10.14-1.11-19.6-2.92-28.52-.42-2.06-2.45-3.38-4.5-2.9-16.42,3.9-33.15,4.33-50.07,4.43.16.49.46,1.47.46,1.47-.11.72-.23,1.45-.34,2.17"/>
      <path class="st6" d="M2344.23,2567.81c6.39,14.62,7.58,34.09,33.11,36.54,1.73-1.62,3.53-3.28,5.17-4.97,11.12-12.62-.66-26.35-12.79-33.09-11.09-6.15-16.58-4.27-25.5,1.53h.01Z"/>
    </g>
  </g>
  <path class="st1" d="M2245.06,2433.88c-33.3,15.12-36.6,74.9-14.99,101.28,11.54,11.18,20.47-7.88,24.67-17.03,5.58-12.4,10.25-24.98,13.09-37.7,2.26-10.62,3.79-22.15.8-32.71-2.71-10.67-12.29-18.45-23.34-13.93l-.24.08h.01Z"/>
  <path class="st5" d="M6648.16,369.08s.58,2.17,1.29,4.83l73.56,274.88c.71,2.66,2.84,5.75,4.73,6.87s5.12-4.21,5.83-6.87l73.56-274.88c.71-2.66,3.54-4.83,6.29-4.83h67.26c2.75,0,4.51,2.2,3.91,4.88l-98.47,439.65c-.6,2.68-3.34,4.88-6.09,4.88h-103.02c-2.75,0-5.49-2.2-6.1-4.88l-98.91-439.65c-.6-2.68,1.15-4.88,3.9-4.88h72.26Z"/>
  <rect class="st5" x="6929.41" y="369.08" width="74.17" height="449.41" rx="5" ry="5"/>
  <path class="st5" d="M7199.16,834.27c-73.46,0-127.88-58.13-136.2-141.05-1.2-11.99,8.12-22.42,20.16-22.42h26.71c10.04,0,18.45,7.37,20.04,17.28,6.33,39.35,34.33,66.04,71.5,66.04s58.72-25.88,58.72-61.86c0-42.29-33.99-48.6-72.85-55.54-62.25-11.36-122.3-30.29-122.3-135.08,0-87.74,52.54-148.33,128.48-148.33,69.9,0,122.03,54.97,130.4,133.46,1.28,11.99-8.11,22.45-20.16,22.45h-24.43c-9.89,0-18.35-7.13-19.98-16.87-5.85-35.13-31.13-58.88-64.07-58.88-34.89,0-57.84,23.36-57.84,56.17,0,42.29,31.34,48.6,71.08,56.17,60.93,10.1,124.07,29.04,124.07,132.55,0,92.15-53.42,155.9-133.33,155.9h0Z"/>
  <path class="st5" d="M7444.05,457.45h-85.36c-2.75,0-5-2.25-5-5v-78.37c0-2.75,2.25-5,5-5h253.14c2.75,0,5,2.25,5,5v78.37c0,2.75-2.25,5-5,5h-80.36c-2.75,0-5.93.42-7.06.92s-2.06,5.45-2.06,8.2v346.92c0,2.75-2.25,5-5,5h-64.17c-2.75,0-5-2.25-5-5v-346.92c0-2.75-.42-5.93-.93-7.06s-3.2-2.06-3.2-2.06h0Z"/>
  <path class="st5" d="M7683.94,818.49s-2.25,0-5,0h-68.14c-2.75,0-4.49-2.19-3.86-4.87l103.23-439.67c.63-2.68,3.39-4.87,6.14-4.87h97.73c2.75,0,5.51,2.19,6.14,4.87l102.8,439.67c.63,2.68-1.11,4.87-3.86,4.87h-67.71c-2.75,0-5.51-2.19-6.13-4.87l-14.97-64.74c-.62-2.68-3.38-4.87-6.13-4.87h-118.04c-2.75,0-5.51,2.19-6.13,4.87l-14.97,64.74c-.62,2.68-1.13,4.87-1.13,4.87ZM7720.96,668.27h83.46c2.75,0,6.04-.56,7.31-1.24s1.18-6.03.54-8.7l-41.92-176.59c-.64-2.68-2.73-5.81-4.66-6.97s-5.04,4.3-5.67,6.97l-41.92,176.59c-.64,2.68-.85,6.01-.47,7.4s3.33,2.54,3.33,2.54h0Z"/>
  <path class="st5" d="M6857.52,1196.9s-.01-2.25-.01-5v-268.81c0-2.75,2.25-5,5-5h60.64c2.75,0,5,2.25,5,5v439.41c0,2.75-2.25,5-5,5h-71.68c-2.75,0-5.86-2.08-6.91-4.62l-121.55-293.62c-1.05-2.54-3.72-5.27-5.93-6.06s-3.86,5.36-3.8,8.11l6.39,291.19c.06,2.75-2.14,5-4.89,5h-60.2c-2.75,0-5-2.25-5-5v-439.41c0-2.75,2.25-5,5-5h71.68c2.75,0,5.87,2.07,6.94,4.61l114.46,271.21c1.07,2.53,3.73,5.26,5.91,6.05s3.96-3.05,3.96-3.05Z"/>
  <path class="st5" d="M6984.67,1142.8c0-142.02,70.64-240.49,173.96-240.49s173.96,98.46,173.96,240.49-71.08,240.49-173.96,240.49-173.96-97.83-173.96-240.49h0ZM7058.84,1142.8c0,87.74,41.06,148.97,99.79,149.59,58.72,0,99.79-61.86,99.79-149.59s-41.06-149.59-99.79-149.59-99.79,61.86-99.79,149.59h0Z"/>
  <path class="st5" d="M7425.73,918.09s.58,2.17,1.29,4.83l73.56,274.65c.71,2.66,2.84,5.75,4.73,6.87s5.12-4.21,5.83-6.87l73.56-274.65c.71-2.66,3.54-4.83,6.29-4.83h67.26c2.75,0,4.51,2.2,3.91,4.88l-98.47,439.65c-.6,2.68-3.34,4.88-6.09,4.88h-103.02c-2.75,0-5.49-2.2-6.1-4.88l-98.91-439.65c-.6-2.68,1.15-4.88,3.9-4.88h72.26Z"/>
  <path class="st5" d="M7726.4,1367.5s-2.25,0-5,0h-68.14c-2.75,0-4.49-2.19-3.86-4.87l103.23-439.67c.63-2.68,3.39-4.87,6.14-4.87h97.73c2.75,0,5.51,2.19,6.14,4.87l102.8,439.67c.63,2.68-1.11,4.87-3.86,4.87h-67.71c-2.75,0-5.51-2.19-6.13-4.87l-14.97-64.74c-.62-2.68-3.38-4.87-6.13-4.87h-118.04c-2.75,0-5.51,2.19-6.13,4.87l-14.97,64.74c-.62,2.68-1.13,4.87-1.13,4.87ZM7763.41,1217.28h83.46c2.75,0,6.04-.56,7.31-1.24s1.18-6.03.54-8.7l-41.92-176.59c-.64-2.68-2.73-5.81-4.66-6.97s-5.04,4.3-5.67,6.97l-41.92,176.59c-.64,2.68-.85,6.01-.47,7.4s3.33,2.54,3.33,2.54h0Z"/>
  <path class="st6" d="M6316.42,1064.21c-66.86.4-133.9-34.47-177.46-70.9-5.54-4.48-10.95-10.22-9.29-17.54,2.24-10.06,11.89-22.23,23.39-24.78,6.13-1.33,12.53.74,19.41,4.95,52.58,38.6,102.13,60.11,153.27,56.98,52.66-2.5,102.81-29.69,146.06-68.02,6.77-5.11,13.21-7.19,20.41-4.41,10.7,4.38,20.89,15.27,21.25,26.4-.06,6.96-5.96,13.08-11.22,18-22.47,20.56-46.57,37.74-73.17,51.28-35.18,17.84-73.57,28.44-112.35,28.05h-.31,0Z"/>
  <g>
    <path class="st6" d="M6202.95,751.97c.11.32.2.66.3.98h38.09c6.09,0,10.63-5.7,9.16-11.59-18.68-74.97-98.91-87.62-148.88-22.84-17.54,25.44-20.13,11.38-31.81-7.9-22-36.54-64.48-41.23-102.11-26.41-7.44,2.69-15.63,7.99-23.27,8.42-13.05.77-26.8-20.92-41.11-17.85-11.5,2.24-27.2,15.52-24.46,29.45,1.54,8.11,14.98,14.25,16.98,23.09,3.36,11.75-.87,23.23-6.87,33.77-14.21,26.23-26.99,54.21-27.49,84.61-.43,22.8,7.21,47.41,25.03,62.43,18.8,16.72,48.83,17.05,68.73,2.61,12.64-8.78,20.27-23.14,24.28-37.81,8.69-33.98-2.12-70.73-12.53-102.47-9.43-24.01,2.7-36.5,25.65-43.38,11.55-3.21,23.27-4.01,31.81,5.03,11.65,12.56,16.1,32.08,18.18,48.95,4.45,33.74,4.38,70.4,2.74,104.5-.18,5.13-.56,10.84.07,15.58.85,9.95,9.71,12.44,18.92,12.84,7.38.37,16.39.37,22.4-1.29,10.34-2.18,12.44-12.44,12.74-21.97,2.44-53.3,8.94-113.4,49.63-152.15,20.27-17.7,45.08-13.34,53.81,13.38h0v.02h.01ZM5926.67,874.45l-.16.06c-5.49,1.95-10.59-2.74-13.09-7.3-7.3-13.77-4.43-31.87-.39-46.6,2.23-7.93,5.44-17.05,8.51-20.88,9.31-12.16,12.95,27.62,13.79,32.66,1.01,12.6,3.41,36.33-8.65,42.08h0v-.02h0Z"/>
    <g>
      <path class="st6" d="M6201.27,747.53c.41.91.98,2.26,1.52,3.94,1.96,6.11,1.85,11.28,1.75,13.68-.59,14.37-2.41,21.31-3.32,31.44-3.1,34.72-7.93,70.37,16.86,98.09,12.44,13.91,29.67,21.25,51.22,21.82.68.02,1.37.03,2.04.03,25.69,0,45.54-12.83,59.94-25.1,6.73,5.34,13.93,9.96,21.52,13.76,13.02,6.5,25.34,9.1,36.77,9.1,35.81,0,62.86-25.56,74.84-36.9l-30.24-33.37c-26.51,25.07-44.35,22.1-58.24,15.16-2.92-1.46-5.7-3.1-8.36-4.91,8.46-10.31,17.11-22.32,24.7-35.72,15.91-28.14,23.12-55.41,21.44-81.06-2.23-33.95-29.98-60.06-64.55-60.73-19.27-.4-36.32,6.76-49.44,20.63-10.53,11.12-17.77,25.95-20.94,42.87-5.75,30.59-2.27,63.65,9.77,93.1,2.69,6.57,5.78,12.87,9.24,18.84-10.12,8.62-18.34,13.08-27.11,12.88-10.16-.27-13.08-3.54-14.05-4.61-9.94-11.11-6.82-46.02-4.96-66.88.81-9.08,1.57-17.65,1.72-25.35.18-9.26-1.02-17.91-2.67-26.05-.38-1.88-2.24-3.1-4.11-2.65-14.99,3.56-30.27,3.95-45.74,4.04.15.45.43,1.35.43,1.35-.11.66-.2,1.32-.31,1.99"/>
      <path class="st6" d="M6434.18,844c5.83,13.35,6.92,31.14,30.24,33.37,1.58-1.47,3.22-3,4.72-4.54,10.15-11.53-.61-24.06-11.68-30.22-10.13-5.62-15.15-3.91-23.28,1.4h0Z"/>
    </g>
  </g>
  <path class="st1" d="M6343.61,721.68c-30.42,13.81-33.43,68.4-13.69,92.5,10.55,10.22,18.7-7.2,22.53-15.56,5.09-11.33,9.37-22.83,11.97-34.44,2.07-9.7,3.46-20.22.73-29.87-2.47-9.74-11.22-16.85-21.32-12.71l-.22.08h0Z"/>
  <g class="st3">
    <g class="st3">
      <g class="st3">
        <g class="st3">
          <text class="st0" transform="translate(2819.72 290.54)"><tspan x="0" y="0">TRANSFERÊNCIA DE CRÉDITO</tspan></text>
        </g>
      </g>
    </g>
    <g class="st3">
      <g class="st3">
        <g class="st3">
          <text class="st0" transform="translate(2819.72 597)"><tspan x="0" y="0">AQUISIÇÃO DE TERRENO</tspan></text>
        </g>
      </g>
    </g>
    <g class="st3">
      <g class="st3">
        <g class="st3">
          <text class="st0" transform="translate(2819.72 903.43)"><tspan x="0" y="0">CRÉDITO CONSOLIDADO</tspan></text>
        </g>
      </g>
    </g>
    <g class="st3">
      <g class="st3">
        <g class="st3">
          <text class="st0" transform="translate(2819.72 1209.88)"><tspan x="0" y="0">CARTÕES DE CRÉDITO</tspan></text>
        </g>
      </g>
    </g>
  </g>
</svg>