<svg xmlns="http://www.w3.org/2000/svg" viewBox="0 0 1000 1000"><path d="M0 0c0-417.83-349.414-756.547-780.438-756.547S-1560.877-417.83-1560.877 0s349.414 756.548 780.439 756.548S0 417.83 0 0" clip-path="url(#a)" style="fill:#0e454e;fill-opacity:1;fill-rule:nonzero;stroke:#000;stroke-width:0;stroke-linecap:butt;stroke-linejoin:miter;stroke-miterlimit:10;stroke-dasharray:none;stroke-opacity:0" transform="matrix(.61981 0 0 -.64467 983.724 500)"/><path d="M0 0c2.75 0 5.682-2.144 6.516-4.765l126.889-398.689c1.84-5.781 11.595-5.781 13.435 0L273.729-4.765C274.563-2.144 277.496 0 280.246 0h120.283c2.75 0 4.421-2.174 3.713-4.832L237.075-632.395c-.708-2.657-3.537-4.832-6.287-4.832H50.201c-2.75 0-5.581 2.174-6.292 4.831L-123.992-4.83c-.711 2.656.957 4.83 3.707 4.83z" clip-path="url(#b)" style="fill:#fff;fill-opacity:1;fill-rule:nonzero;stroke:#000;stroke-width:0;stroke-linecap:butt;stroke-linejoin:miter;stroke-miterlimit:10;stroke-dasharray:none;stroke-opacity:0" transform="matrix(.61981 0 0 -.64467 260.233 272.294)"/><path d="M0 0v390.327c0 2.75 2.25 5 5 5h109.117c2.75 0 5-2.25 5-5V-236.9c0-2.75-2.25-5-5-5H-13.612c-2.75 0-5.994 2.019-7.209 4.486l-209.216 424.937c-2.944 5.979-13.546 4.105-13.378-2.365l11.007-422.06a4.86 4.86 0 0 0-4.87-4.998h-108.371c-2.75 0-5 2.25-5 5v627.227c0 2.75 2.25 5 5 5h127.728c2.75 0 6.01-2.011 7.243-4.469L-13.361-2.274C-10.412-8.149 0-6.377 0 0" clip-path="url(#c)" style="fill:#fff;fill-opacity:1;fill-rule:nonzero;stroke:#000;stroke-width:0;stroke-linecap:butt;stroke-linejoin:miter;stroke-miterlimit:10;stroke-dasharray:none;stroke-opacity:0" transform="matrix(.61981 0 0 -.64467 742.49 526.727)"/><path d="M0 0c-88.049-.55-176.342 46.716-233.706 96.068-7.291 6.071-14.42 13.855-12.242 23.774 2.948 13.621 15.653 30.123 30.803 33.571 8.077 1.795 16.498-1.003 25.562-6.703 69.244-52.304 134.504-81.45 201.841-77.199 69.347 3.382 135.388 40.229 192.354 92.159 8.914 6.913 17.396 9.749 26.878 5.972 14.098-5.934 27.515-20.691 27.975-35.772-.083-9.428-7.848-17.727-14.774-24.379-29.588-27.861-61.328-51.134-96.362-69.48C101.996 13.839 51.441-.525.375-.003Z" clip-path="url(#d)" style="fill:#e5fc2a;fill-opacity:1;fill-rule:nonzero;stroke:#000;stroke-width:0;stroke-linecap:butt;stroke-linejoin:miter;stroke-miterlimit:10;stroke-dasharray:none;stroke-opacity:0" transform="matrix(.61981 0 0 -.64467 437.592 853.958)"/></svg>